<?xml version="1.0" standalone="no"?>
<!DOCTYPE svg PUBLIC "-//W3C//DTD SVG 20010904//EN"
 "http://www.w3.org/TR/2001/REC-SVG-20010904/DTD/svg10.dtd">
<svg version="1.0" xmlns="http://www.w3.org/2000/svg"
 width="834.000000pt" height="980.000000pt" viewBox="0 0 834.000000 980.000000"
 preserveAspectRatio="xMidYMid meet">

<g transform="translate(0.000000,980.000000) scale(0.100000,-0.100000)"
fill="#000000" stroke="none">
<path d="M3835 9789 c-418 -43 -806 -182 -1155 -414 -618 -411 -1032 -1072
-1135 -1815 -96 -693 96 -1403 532 -1969 91 -117 336 -360 459 -453 358 -272
756 -438 1209 -504 165 -24 495 -24 660 0 550 80 1019 306 1413 681 432 412
702 941 789 1550 25 172 22 541 -5 720 -87 560 -325 1041 -712 1439 -404 415
-896 668 -1465 752 -123 18 -468 26 -590 13z m590 -598 c1113 -210 1833 -1293
1599 -2403 -82 -388 -268 -732 -549 -1014 -325 -326 -742 -526 -1200 -575
-135 -14 -395 -6 -520 16 -581 103 -1077 440 -1379 937 -404 665 -391 1509 33
2160 324 498 830 815 1431 898 116 16 461 5 585 -19z"/>
<path d="M2965 4409 c-1110 -94 -2095 -763 -2604 -1769 -165 -325 -270 -663
-328 -1055 -14 -96 -18 -187 -18 -455 l0 -335 28 -80 c39 -110 89 -188 173
-270 225 -220 649 -350 1324 -405 372 -30 528 -32 2330 -37 1814 -5 2395 1
2770 27 915 64 1399 235 1598 564 88 145 109 295 93 665 -23 512 -123 916
-330 1338 -264 535 -636 961 -1126 1288 -459 307 -954 477 -1525 525 -140 12
-2243 11 -2385 -1z m2540 -593 c148 -24 389 -86 511 -131 234 -86 521 -246
724 -403 116 -90 335 -306 433 -427 195 -242 365 -552 461 -845 101 -305 136
-535 136 -882 l0 -218 -37 -41 c-142 -157 -638 -245 -1563 -279 -359 -13
-3722 -13 -4080 0 -1006 37 -1464 138 -1520 338 -20 74 -6 420 26 637 45 309
166 656 323 930 404 704 1102 1189 1891 1314 69 11 145 22 170 24 25 2 578 3
1230 2 1092 -1 1194 -2 1295 -19z"/>
</g>
</svg>
